HIERARCHY
ROOT Hip
{
    OFFSET 0.0 0.0 0.0
    CHANNELS 6 Xposition Yposition Zposition Zrotation Xrotation Yrotation
    JOINT RightHip
    {
        OFFSET -13.93172550201416 0.0 0.0
        CHANNELS 3 Zrotation Xrotation Yrotation
        JOINT RightKnee
        {
            OFFSET 0.0 0.0 -43.03237533569336
            CHANNELS 3 Zrotation Xrotation Yrotation
            JOINT RightAnkle
            {
                OFFSET 0.0 0.0 -43.61851501464844
                CHANNELS 3 Zrotation Xrotation Yrotation
                End Site
                {
                    OFFSET 0.0 -17.447406768798828 0.0
                }
            }
        }
    }
    JOINT LeftHip
    {
        OFFSET 13.93172550201416 0.0 0.0
        CHANNELS 3 Zrotation Xrotation Yrotation
        JOINT LeftKnee
        {
            OFFSET 0.0 0.0 -43.03237533569336
            CHANNELS 3 Zrotation Xrotation Yrotation
            JOINT LeftAnkle
            {
                OFFSET 0.0 0.0 -43.61851501464844
                CHANNELS 3 Zrotation Xrotation Yrotation
                End Site
                {
                    OFFSET 0.0 -17.447406768798828 0.0
                }
            }
        }
    }
    JOINT Spine
    {
        OFFSET 0.0 0.0 25.557682037353516
        CHANNELS 3 Zrotation Xrotation Yrotation
        JOINT Thorax
        {
            OFFSET 0.0 0.0 25.316410064697266
            CHANNELS 3 Zrotation Xrotation Yrotation
            JOINT Neck
            {
                OFFSET 0.0 0.0 11.616474151611328
                CHANNELS 3 Zrotation Xrotation Yrotation
                End Site
                {
                    OFFSET 0.0 0.0 4.646589279174805
                }
            }
            JOINT LeftShoulder
            {
                OFFSET 15.678119659423828 0.0 0.0
                CHANNELS 3 Zrotation Xrotation Yrotation
                JOINT LeftElbow
                {
                    OFFSET 25.878799438476562 0.0 0.0
                    CHANNELS 3 Zrotation Xrotation Yrotation
                    JOINT LeftWrist
                    {
                        OFFSET 19.23625946044922 0.0 0.0
                        CHANNELS 3 Zrotation Xrotation Yrotation
                        End Site
                        {
                            OFFSET 7.6945037841796875 0.0 0.0
                        }
                    }
                }
            }
            JOINT RightShoulder
            {
                OFFSET -15.678119659423828 0.0 0.0
                CHANNELS 3 Zrotation Xrotation Yrotation
                JOINT RightElbow
                {
                    OFFSET -25.878799438476562 0.0 0.0
                    CHANNELS 3 Zrotation Xrotation Yrotation
                    JOINT RightWrist
                    {
                        OFFSET -19.23625946044922 0.0 0.0
                        CHANNELS 3 Zrotation Xrotation Yrotation
                        End Site
                        {
                            OFFSET -7.6945037841796875 0.0 0.0
                        }
                    }
                }
            }
        }
    }
}
MOTION
Frames: 6
Frame Time: 0.03333333333333333
0.0002773151209112257 -0.0038231653161346912 -0.00012483510363381356 84.96031998250271 -62.644355156507466 -102.56219218436858 0.507394659131334 -16.060969597269093 4.216563830843849 0.8669246340418262 20.02501525387396 3.934511244574654 3.1805546814635168e-15 0.0 0.0 0.4228601427756367 -13.20088658899786 3.086314884521459 0.5394615736242406 23.465438101996742 -0.08738892100054946 0.0 0.0 0.0 -0.4735653349041435 14.883115144398014 0.6336251316714228 -2.215134358996233 -4.0267539969178395e-06 -2.829001561256497e-06 4.058705748455732 19.22043425347572 -22.579678430514242 44.113431862442745 -25.430041196199053 48.629167692216875 -127.98103387085932 -1.6440273985965375e-06 -1.6682882550573897e-06 1.5902773407317588e-15 0.0 0.0 -72.45957468815908 -35.151252534794935 -52.834353300459256 123.28839619482402 2.267146013047695e-06 3.0178613970609673e-06 -5.913843860846227e-15 0.0 0.0
0.00032120844116434455 -0.0038239264395087957 -0.00012536492431536317 83.2732822951608 -62.80670799965978 -103.8859130898599 0.3807272482613676 -14.672816566827885 3.501726413287965 0.7065049601474651 19.528332463852642 3.9387328972596682 -4.770832022195274e-15 -6.361109362927033e-15 -1.5902773407317584e-15 0.3250445154276259 -12.240740432030295 2.5539137305367636 0.4415965366027472 23.192628939040723 -0.01017587027568498 -1.7655625192200634e-31 6.361109362927033e-15 3.1805546814635164e-15 -0.3929667885665689 14.914751294528424 1.3280215388637626 -2.2103973056799426 -1.043859552878209e-06 -7.081677374282627e-07 3.973113318658832 20.401152952497426 -22.86725683371658 44.06047764055154 -25.562679691977426 48.55910872422782 -128.1363750872488 -4.0409251489750695e-06 -3.4189852530114367e-07 0.0 0.0 2.3854160110976384e-15 -73.1202631638681 -33.903693917403494 -53.69512015359077 123.91620512278868 -2.342755134084311e-06 -4.2861294723354013e-07 0.0 0.0 0.0
0.00031719793332740664 -0.003830000525340438 -0.00012267603597138077 81.6739327705851 -63.01888070583072 -105.22362665429624 0.3148313753438399 -13.465783818082881 3.07713677176665 0.5937077466287412 19.0786391343879 3.712719388861771 0.0 0.0 3.1805546814635168e-15 0.2746250301948395 -11.40084067574622 2.353012538890049 0.4128609102993122 22.94882170713746 -0.1213087435086968 1.590277340731758e-15 6.361109362927033e-15 3.1805546814635164e-15 -0.35682441741740156 14.937561001406056 1.8958859686932 -2.318276768975204 1.7358279920007861e-06 1.5759455077839216e-06 4.203096330645153 21.540405242736714 -23.06168170635229 43.113746956568164 -25.275447713128166 48.05213052613635 -127.43287008597926 1.287646641633955e-06 -4.0035124770801345e-06 -7.156248033292912e-15 -7.95138670365879e-16 -7.951386703658792e-16 -73.2735489428605 -33.22650230610677 -54.01745091329029 123.72672684784708 6.187896806734781e-07 6.110861391451283e-06 -8.050779037454527e-15 -2.234540063387893e-31 3.1805546814635168e-15
0.0002959910489153117 -0.0038711591623723507 -0.00011246177018620074 80.74883281849579 -63.037233564541815 -105.92920253182638 0.2696499221927235 -12.753262256575631 2.923202389502777 0.5790939755830826 18.893179307857295 3.1933607059273514 1.5902773407317584e-15 -2.2069531490250793e-32 -1.5902773407317584e-15 0.24451578060959012 -11.151050404268284 2.2988760818260072 0.4525563209500084 23.381507141747555 -0.5646627662109885 -4.770832022195275e-15 6.3611093629270335e-15 2.648343778830095e-31 -0.3239000386056491 14.925525941514481 2.189196067475705 -2.2247729492785746 -2.9074031822054442e-06 -2.831589952085076e-07 3.6062085353414273 22.647435782322503 -22.939661117877183 43.249385637122266 -25.120704038971635 47.75191453742712 -127.8191985335627 2.148696260934781e-06 -5.0839975834445924e-08 -1.5902773407317578e-15 -5.565970692561154e-15 1.033680271475643e-14 -72.89555820462907 -32.18391341842229 -54.08016916448415 124.3942480240077 8.216332800066963e-07 -1.2243309993124175e-06 1.3914926731402884e-15 0.0 0.0
0.0002483124262653291 -0.003865743987262249 -0.0001031900173984468 79.59692141607931 -62.9057777017835 -107.01136567528101 0.2870779273688963 -11.946501225544628 2.814787635510324 0.4770791234886712 18.6043065444748 2.9644287421533737 1.5902773407317588e-15 -2.2069531490250793e-32 -1.5902773407317588e-15 0.2653610212439114 -10.677564183553004 2.4404516148441737 0.446065710500883 23.59608218282104 -0.9742580471101157 3.1805546814635168e-15 8.827812596100317e-32 3.1805546814635168e-15 -0.3673843409429083 14.892704783933466 2.387091022289475 -2.163015587776749 1.7710549725327702e-06 -6.574415034414718e-08 3.7547199577599883 23.662630123206615 -22.854562427101996 43.27204558129704 -24.863770700897355 47.62271673721281 -127.66902557595445 8.55534377198063e-06 -3.90316987922498e-06 -2.3854160110976384e-15 -6.361109362927035e-15 -7.951386703658796e-16 -72.0236726829041 -31.364784867032636 -53.92232133232353 125.44583517426997 -3.263073937848742e-08 -2.307096236130967e-06 -1.2051320472732855e-15 0.0 0.0
0.0002064232830889523 -0.0039022411219775677 -0.0001023831355269067 78.47889557131244 -62.91503543227708 -108.05800722594627 0.27366241430182375 -11.051960765400942 2.785598022826727 0.44064684733778087 18.12346391130079 2.6090448930040124 0.0 0.0 0.0 0.2573494108608856 -10.037983323886658 2.541944868853559 0.4644661515562807 23.281062121906025 -1.2219933393690787 1.5902773407317582e-15 -4.4139062980501586e-32 -3.1805546814635164e-15 -0.3792602976596217 14.885155135721096 2.5328654871449436 -2.2994617602683087 -1.6364026025721875e-07 -5.238029796959857e-07 3.91892945964621 24.508879282478023 -23.032420472215982 43.247015658972536 -25.025527443333814 47.5189275188682 -127.42152022971304 3.3834978346828634e-06 2.7423841013630434e-09 1.5902773407317584e-15 -7.951386703658794e-16 -7.156248033292914e-15 -72.34654336543895 -31.553342535337116 -53.63030382965334 124.95537114305083 7.168201492308698e-07 -2.568089934891422e-06 2.3854160110976376e-15 0.0 0.0
